<svg id="Layer_1" data-name="Layer 1" xmlns="http://www.w3.org/2000/svg" xmlns:xlink="http://www.w3.org/1999/xlink" viewBox="0 0 172.25 40.79"><defs><style>.cls-1{fill:url(#Orange_Yellow);}.cls-2{fill:url(#Orange_Yellow-2);}.cls-3{fill:url(#Orange_Yellow-3);}.cls-4{fill:url(#Orange_Yellow-4);}.cls-5{fill:url(#Orange_Yellow-5);}.cls-6{fill:url(#Orange_Yellow-6);}</style><linearGradient id="Orange_Yellow" x1="-2.39" y1="36.12" x2="26.83" y2="6.9" gradientUnits="userSpaceOnUse"><stop offset="0" stop-color="#fff33b"/><stop offset="0.04" stop-color="#fee72e"/><stop offset="0.12" stop-color="#fed51b"/><stop offset="0.2" stop-color="#fdca10"/><stop offset="0.28" stop-color="#fdc70c"/><stop offset="0.67" stop-color="#f3903f"/><stop offset="0.89" stop-color="#ed683c"/><stop offset="1" stop-color="#e93e3a"/></linearGradient><linearGradient id="Orange_Yellow-2" x1="33.18" y1="37.04" x2="54.15" y2="16.06" xlink:href="#Orange_Yellow"/><linearGradient id="Orange_Yellow-3" x1="62.82" y1="38.53" x2="85.56" y2="15.79" xlink:href="#Orange_Yellow"/><linearGradient id="Orange_Yellow-4" x1="88.97" y1="35.01" x2="112.99" y2="10.98" xlink:href="#Orange_Yellow"/><linearGradient id="Orange_Yellow-5" x1="119.5" y1="36.68" x2="141.59" y2="14.6" xlink:href="#Orange_Yellow"/><linearGradient id="Orange_Yellow-6" x1="142.15" y1="36.88" x2="167.55" y2="11.48" xlink:href="#Orange_Yellow"/></defs><path class="cls-1" d="M24.66,29.76A9.76,9.76,0,0,1,21,37.83q-3.67,3-10.26,3A24.09,24.09,0,0,1,0,38.51V31.05a43.19,43.19,0,0,0,6.48,2.41,19,19,0,0,0,4.85.7,6.92,6.92,0,0,0,4.05-1,3.43,3.43,0,0,0,1.42-3,3.29,3.29,0,0,0-.63-2,7,7,0,0,0-1.82-1.67,47.71,47.71,0,0,0-4.9-2.56,23.38,23.38,0,0,1-5.21-3.13,11.82,11.82,0,0,1-2.76-3.5,9.85,9.85,0,0,1-1-4.66,9.78,9.78,0,0,1,3.4-7.89Q7.25,1.9,13.25,1.89a22,22,0,0,1,5.63.7,38.79,38.79,0,0,1,5.6,2l-2.59,6.24a37.34,37.34,0,0,0-5-1.73A16,16,0,0,0,13,8.57,5.13,5.13,0,0,0,9.5,9.63,3.5,3.5,0,0,0,8.28,12.4a3.43,3.43,0,0,0,.49,1.85,5.45,5.45,0,0,0,1.57,1.52,48.44,48.44,0,0,0,5.08,2.66Q20.73,21,22.7,23.51A9.92,9.92,0,0,1,24.66,29.76Z"/><path class="cls-2" d="M44,40.79q-7,0-10.92-3.86T29.14,26q0-7.28,3.64-11.25t10-4q6.14,0,9.55,3.5t3.41,9.65v3.83H37.14a7.57,7.57,0,0,0,2,5.25,7,7,0,0,0,5.23,1.89,21.81,21.81,0,0,0,4.94-.54,24.86,24.86,0,0,0,4.86-1.74v6.11a18.65,18.65,0,0,1-4.42,1.54A27.67,27.67,0,0,1,44,40.79ZM42.88,16.41A5,5,0,0,0,39,18a7.37,7.37,0,0,0-1.63,4.51H48.39A6.57,6.57,0,0,0,46.87,18,5.2,5.2,0,0,0,42.88,16.41Z"/><path class="cls-3" d="M80.59,40.27l-1.53-3.94h-.21a11.49,11.49,0,0,1-4.1,3.48,13.21,13.21,0,0,1-5.5,1,8.89,8.89,0,0,1-6.56-2.39Q60.31,36,60.3,31.62q0-4.61,3.22-6.79t9.72-2.42l5-.15V21q0-4.39-4.51-4.4a20.65,20.65,0,0,0-8.15,2.09L63,13.35a23.55,23.55,0,0,1,11.08-2.61q5.82,0,8.92,2.54T86.1,21V40.27ZM78.26,26.86,75.2,27a9.77,9.77,0,0,0-5.12,1.24,3.9,3.9,0,0,0-1.68,3.47c0,2.22,1.27,3.33,3.83,3.33a6,6,0,0,0,4.38-1.57,5.55,5.55,0,0,0,1.65-4.2Z"/><path class="cls-4" d="M110.37,10.79A13.18,13.18,0,0,1,113,11l-.6,7.41a8.66,8.66,0,0,0-2.33-.26,8.33,8.33,0,0,0-5.88,1.94,7,7,0,0,0-2.11,5.43V40.27H94.23V11.33h6l1.17,4.87h.39a10.77,10.77,0,0,1,3.63-3.92A9,9,0,0,1,110.37,10.79Z"/><path class="cls-5" d="M130,40.79q-13.5,0-13.51-14.83,0-7.38,3.68-11.27t10.53-3.9a20.12,20.12,0,0,1,9,2l-2.33,6.11c-1.25-.5-2.4-.91-3.47-1.23a11.15,11.15,0,0,0-3.21-.48q-6.17,0-6.16,8.74,0,8.49,6.16,8.49a14.25,14.25,0,0,0,4.22-.6,15.16,15.16,0,0,0,3.88-1.91v6.76A12.79,12.79,0,0,1,135,40.32,21.71,21.71,0,0,1,130,40.79Z"/><path class="cls-6" d="M172.25,40.27h-7.89V23.37c0-4.18-1.56-6.26-4.66-6.26a5.3,5.3,0,0,0-4.79,2.25q-1.47,2.25-1.47,7.3V40.27h-7.9V0h7.9V8.2c0,.64-.06,2.14-.19,4.51L153.07,15h.42q2.64-4.24,8.38-4.25c3.4,0,6,.92,7.74,2.74s2.64,4.46,2.64,7.87Z"/></svg>